<svg width="40" height="40" viewBox="0 0 40 40" fill="none" xmlns="http://www.w3.org/2000/svg">
<path d="M33.6191 7.00001V8.00001V7.00001ZM17.6825 7V6V7ZM14.3492 11.2381V12.2381H15.3492V11.2381H14.3492ZM7.73868 12.9177L6.87043 12.4215L6.87043 12.4215L7.73868 12.9177ZM3.04779 21.127L2.17954 20.6308L2.04779 20.8614L2.04779 21.127L3.04779 21.127ZM3.04787 29.6825L4.04787 29.6825L3.04787 29.6825ZM10.8175 37.6666C13.3203 37.6666 15.3492 35.6377 15.3492 33.1349H13.3492C13.3492 34.5331 12.2157 35.6666 10.8175 35.6666V37.6666ZM6.28572 33.1349C6.28572 35.6377 8.31465 37.6666 10.8175 37.6666V35.6666C9.41922 35.6666 8.28572 34.5331 8.28572 33.1349H6.28572ZM10.8175 28.6032C8.31465 28.6032 6.28572 30.6321 6.28572 33.1349H8.28572C8.28572 31.7367 9.41922 30.6032 10.8175 30.6032V28.6032ZM15.3492 33.1349C15.3492 30.6321 13.3203 28.6032 10.8175 28.6032V30.6032C12.2157 30.6032 13.3492 31.7367 13.3492 33.1349H15.3492ZM33.1269 33.1349C33.1269 34.5331 31.9934 35.6666 30.5952 35.6666V37.6666C33.098 37.6666 35.1269 35.6377 35.1269 33.1349H33.1269ZM30.5952 30.6032C31.9934 30.6032 33.1269 31.7367 33.1269 33.1349H35.1269C35.1269 30.6321 33.098 28.6032 30.5952 28.6032V30.6032ZM28.0635 33.1349C28.0635 31.7367 29.197 30.6032 30.5952 30.6032V28.6032C28.0924 28.6032 26.0635 30.6321 26.0635 33.1349H28.0635ZM30.5952 35.6666C29.197 35.6666 28.0635 34.5331 28.0635 33.1349H26.0635C26.0635 35.6377 28.0924 37.6666 30.5952 37.6666V35.6666ZM6.3812 34.0158H7V32.0158H6.3812V34.0158ZM14.3492 34.0158H27V32.0158H14.3492V34.0158ZM37.9524 30.0634V10.3333H35.9524V30.0634H37.9524ZM33.6191 6.00001L17.6825 6V8L33.6191 8.00001V6.00001ZM13.3492 10.3333V11.2381H15.3492V10.3333H13.3492ZM14.3492 10.2381H10.6328V12.2381H14.3492V10.2381ZM6.87043 12.4215L2.17954 20.6308L3.91604 21.6231L8.60693 13.4138L6.87043 12.4215ZM2.04779 21.127L2.04787 29.6825L4.04787 29.6825L4.04779 21.127L2.04779 21.127ZM10.6328 10.2381C9.07777 10.2381 7.64194 11.0714 6.87043 12.4215L8.60693 13.4138C9.02235 12.6868 9.7955 12.2381 10.6328 12.2381V10.2381ZM17.6825 6C15.2893 6 13.3492 7.9401 13.3492 10.3333H15.3492C15.3492 9.04467 16.3939 8 17.6825 8V6ZM37.9524 10.3333C37.9524 7.94011 36.0123 6.00001 33.6191 6.00001V8.00001C34.9077 8.00001 35.9524 9.04468 35.9524 10.3333H37.9524ZM34.1665 34.0124C36.2725 33.9247 37.9524 32.1905 37.9524 30.0634H35.9524C35.9524 31.1138 35.1226 31.9709 34.0833 32.0141L34.1665 34.0124ZM6.3812 32.0158C5.09254 32.0158 4.04788 30.9712 4.04787 29.6825L2.04787 29.6825C2.04789 32.0758 3.98798 34.0158 6.3812 34.0158V32.0158Z" fill="#F6A219"/>
<path d="M7 14.0635H14.3492V21.127H3" stroke="#F6A219" stroke-width="2"/>
</svg>
