<svg width="160" height="160" viewBox="0 0 160 160" fill="none" xmlns="http://www.w3.org/2000/svg">
<path d="M134.476 28V32V28ZM70.7302 28V24V28ZM57.3968 44.9524V48.9524H61.3968V44.9524H57.3968ZM30.9547 51.6707L27.4817 49.6861L27.4817 49.6861L30.9547 51.6707ZM12.1912 84.5079L8.71816 82.5233L8.19115 83.4456L8.19116 84.5079L12.1912 84.5079ZM12.1915 118.73L16.1915 118.73L12.1915 118.73ZM43.2699 150.667C53.2812 150.667 61.3969 142.551 61.3969 132.54H53.3969C53.3969 138.133 48.8629 142.667 43.2699 142.667V150.667ZM25.1429 132.54C25.1429 142.551 33.2587 150.667 43.2699 150.667V142.667C37.6769 142.667 33.1429 138.133 33.1429 132.54H25.1429ZM43.2699 114.413C33.2587 114.413 25.1429 122.529 25.1429 132.54H33.1429C33.1429 126.947 37.6769 122.413 43.2699 122.413V114.413ZM61.3969 132.54C61.3969 122.529 53.2812 114.413 43.2699 114.413V122.413C48.8629 122.413 53.3969 126.947 53.3969 132.54H61.3969ZM132.508 132.54C132.508 138.133 127.974 142.667 122.381 142.667V150.667C132.392 150.667 140.508 142.551 140.508 132.54H132.508ZM122.381 122.413C127.974 122.413 132.508 126.947 132.508 132.54H140.508C140.508 122.529 132.392 114.413 122.381 114.413V122.413ZM112.254 132.54C112.254 126.947 116.788 122.413 122.381 122.413V114.413C112.37 114.413 104.254 122.529 104.254 132.54H112.254ZM122.381 142.667C116.788 142.667 112.254 138.133 112.254 132.54H104.254C104.254 142.551 112.37 150.667 122.381 150.667V142.667ZM25.5248 136.063H28V128.063H25.5248V136.063ZM57.3968 136.063H108V128.063H57.3968V136.063ZM151.81 120.254V41.3334H143.81V120.254H151.81ZM134.476 24L70.7302 24V32L134.476 32V24ZM53.3968 41.3333V44.9524H61.3968V41.3333H53.3968ZM57.3968 40.9524H42.5314V48.9524H57.3968V40.9524ZM27.4817 49.6861L8.71816 82.5233L15.6642 86.4924L34.4277 53.6552L27.4817 49.6861ZM8.19116 84.5079L8.19146 118.73L16.1915 118.73L16.1912 84.5078L8.19116 84.5079ZM42.5314 40.9524C36.3111 40.9524 30.5678 44.2854 27.4817 49.6861L34.4277 53.6552C36.0894 50.7471 39.182 48.9524 42.5314 48.9524V40.9524ZM70.7302 24C61.1572 24 53.3968 31.7604 53.3968 41.3333H61.3968C61.3968 36.1787 65.5755 32 70.7302 32V24ZM151.81 41.3334C151.81 31.7604 144.049 24 134.476 24V32C139.631 32 143.81 36.1787 143.81 41.3334H151.81ZM136.666 136.05C145.09 135.699 151.81 128.762 151.81 120.254H143.81C143.81 124.455 140.49 127.883 136.333 128.056L136.666 136.05ZM25.5248 128.063C20.3702 128.063 16.1915 123.885 16.1915 118.73L8.19146 118.73C8.19155 128.303 15.9519 136.063 25.5248 136.063V128.063Z" fill="white"/>
<path d="M28 56.2539H57.3969V84.5078H12" stroke="white" stroke-width="8"/>
</svg>
