<?xml version="1.0" standalone="no"?>
<!DOCTYPE svg PUBLIC "-//W3C//DTD SVG 20010904//EN"
 "http://www.w3.org/TR/2001/REC-SVG-20010904/DTD/svg10.dtd">
<svg version="1.0" xmlns="http://www.w3.org/2000/svg"
 width="768.000000pt" height="768.000000pt" viewBox="0 0 768.000000 768.000000"
 preserveAspectRatio="xMidYMid meet">
<metadata>
Created by potrace 1.14, written by Peter Selinger 2001-2017
</metadata>
<g transform="translate(0.000000,768.000000) scale(0.100000,-0.100000)"
fill="#000000" stroke="none">
<path d="M0 4520 l0 -2640 120 0 120 0 0 2520 0 2520 2920 0 2920 0 0 -1440 0
-1440 120 0 120 0 0 1560 0 1560 -3160 0 -3160 0 0 -2640z"/>
<path d="M3610 6274 c-796 -44 -1191 -98 -2007 -278 -270 -60 -361 -88 -424
-131 -121 -84 -199 -297 -199 -542 1 -257 85 -426 254 -508 131 -64 271 -68
441 -14 52 16 213 90 375 172 468 236 817 360 1410 502 176 42 223 47 245 24
33 -33 1 -64 -184 -181 -450 -285 -852 -597 -1311 -1018 -194 -178 -703 -689
-871 -875 -75 -82 -193 -213 -263 -290 -210 -231 -268 -334 -270 -480 -1 -94
17 -141 72 -183 30 -23 45 -27 101 -27 62 1 74 5 201 72 250 132 737 337 1090
458 1045 358 2140 529 3610 565 413 10 988 -1 1365 -25 322 -21 387 -20 416 5
23 19 23 21 6 34 -24 19 -110 32 -282 46 -77 6 -212 17 -300 25 -851 78 -1625
83 -2530 19 -709 -50 -1415 -158 -2000 -306 -325 -82 -723 -207 -890 -280 -96
-42 -195 -61 -195 -38 0 17 364 379 550 546 354 319 755 630 1150 893 266 177
384 246 830 491 345 189 606 340 745 433 125 83 253 214 296 302 32 67 34 75
34 180 0 91 -4 118 -21 156 -64 138 -202 208 -469 239 -88 11 -845 21 -975 14z"/>
<path d="M3224 2516 c-294 -109 -377 -478 -159 -702 80 -82 163 -117 285 -122
78 -3 106 0 155 17 177 62 287 216 289 401 1 101 -18 163 -74 248 -105 156
-318 224 -496 158z m248 -217 c92 -47 137 -157 107 -260 -58 -192 -336 -203
-413 -17 -78 187 124 369 306 277z"/>
<path d="M5805 2523 c-121 -44 -205 -118 -258 -231 -30 -63 -32 -74 -32 -177
0 -103 2 -114 31 -176 55 -115 138 -190 255 -229 52 -18 81 -21 155 -18 81 3
100 8 166 41 92 45 157 112 201 205 30 63 32 74 32 177 0 103 -2 114 -32 177
-44 93 -109 160 -201 205 -68 34 -83 38 -171 40 -73 3 -108 -1 -146 -14z m230
-220 c141 -71 163 -275 40 -369 -87 -66 -199 -63 -278 7 -135 118 -90 328 81
375 52 15 112 9 157 -13z"/>
<path d="M4945 2503 c-77 -28 -139 -68 -185 -120 -187 -210 -119 -534 138
-660 51 -25 67 -28 163 -28 102 0 108 1 158 33 29 17 54 32 56 32 2 0 5 -12 7
-27 3 -28 4 -28 78 -28 l75 0 0 230 0 230 -190 0 -190 0 0 -80 0 -80 95 -5
c78 -4 94 -8 92 -20 -11 -47 -95 -93 -172 -93 -158 0 -264 161 -199 303 40 89
104 131 199 131 58 1 97 -13 152 -54 l27 -20 75 49 c44 29 76 56 76 66 0 24
-74 84 -149 121 -56 27 -76 32 -160 34 -73 3 -108 -1 -146 -14z"/>
<path d="M2224 2497 c-3 -8 -4 -52 -2 -98 l3 -84 173 -3 c94 -1 172 -6 172
-10 0 -4 -81 -106 -180 -227 l-180 -220 2 -75 3 -75 335 0 335 0 0 95 0 95
-177 3 c-119 2 -178 6 -178 13 0 6 71 97 158 202 219 266 204 240 200 323 l-3
69 -328 3 c-267 2 -328 0 -333 -11z"/>
<path d="M3895 2498 c-3 -7 -4 -189 -3 -403 l3 -390 95 0 95 0 5 105 5 105 34
3 c60 6 75 -4 139 -97 89 -129 76 -121 202 -121 60 0 111 3 113 8 3 4 -31 58
-76 121 l-81 114 30 21 c48 35 76 68 102 124 21 48 24 64 20 140 -6 132 -57
211 -166 260 -51 22 -509 32 -517 10z m456 -207 c24 -25 29 -37 29 -81 0 -90
-43 -114 -200 -108 l-85 3 -3 94 c-1 52 -1 100 2 108 4 10 33 13 116 13 110 0
112 0 141 -29z"/>
<path d="M418 1340 c-124 -21 -236 -107 -295 -228 -36 -73 -38 -80 -38 -176 0
-93 3 -107 32 -168 117 -249 430 -325 621 -152 28 24 53 44 56 44 3 0 6 -27 6
-60 0 -52 2 -60 19 -60 10 0 22 7 25 16 9 24 7 367 -2 382 -7 9 -48 12 -173
10 -162 -3 -164 -3 -167 -25 -3 -23 -2 -23 126 -23 72 0 137 -3 146 -6 13 -5
16 -21 16 -75 0 -69 0 -70 -47 -120 -138 -148 -362 -152 -503 -9 -68 67 -93
128 -98 230 -5 109 19 178 88 253 72 79 149 112 260 112 101 -1 165 -26 243
-95 47 -41 48 -42 68 -24 19 17 19 18 -23 61 -50 52 -141 99 -217 113 -60 11
-75 11 -143 0z"/>
<path d="M2075 1337 c-118 -40 -207 -117 -258 -225 -30 -62 -32 -75 -32 -173
0 -101 1 -108 38 -181 121 -245 435 -308 640 -128 97 85 142 198 135 335 -8
152 -96 282 -236 348 -57 27 -80 32 -157 34 -55 2 -105 -2 -130 -10z m257 -79
c75 -35 138 -94 174 -165 26 -52 29 -68 29 -153 0 -82 -4 -103 -26 -151 -126
-268 -505 -268 -636 -1 -25 50 -28 68 -28 152 0 84 3 101 28 147 51 97 120
156 220 189 64 21 171 13 239 -18z"/>
<path d="M1035 1317 c-3 -6 -4 -183 -3 -392 l3 -380 25 0 25 0 5 135 5 135
157 3 156 3 99 -138 c90 -125 102 -138 132 -141 44 -4 43 -3 -68 152 -50 69
-91 129 -91 134 1 4 24 21 53 37 100 58 143 183 102 304 -20 60 -92 131 -153
149 -56 17 -441 17 -447 -1z m445 -61 c82 -43 114 -100 108 -191 -5 -81 -35
-127 -104 -161 -48 -24 -56 -24 -220 -22 l-169 3 -3 185 c-1 101 0 191 3 198
4 11 38 13 178 10 143 -3 178 -7 207 -22z"/>
<path d="M2764 1316 c-3 -8 -4 -135 -2 -283 5 -311 11 -337 88 -414 63 -63
137 -90 245 -90 146 0 247 56 302 169 l28 57 3 288 3 287 -30 0 -31 0 0 -262
c0 -279 -5 -315 -48 -380 -61 -93 -223 -130 -353 -79 -44 16 -101 73 -123 121
-19 42 -21 66 -24 323 l-3 277 -25 0 c-14 0 -27 -6 -30 -14z"/>
<path d="M3650 936 l0 -396 24 0 c32 0 36 14 36 141 l0 109 148 0 c174 0 228
12 291 67 143 122 115 355 -54 446 -37 20 -57 22 -242 25 l-203 3 0 -395z
m360 333 c66 -15 115 -53 145 -112 45 -90 26 -189 -48 -254 -55 -48 -95 -57
-252 -58 l-140 0 -3 218 -2 217 127 0 c71 0 148 -5 173 -11z"/>
</g>
</svg>
